<svg viewBox="0 0 17 16" fill="none" xmlns="http://www.w3.org/2000/svg">
<path d="M3.83333 14.6663C3.46667 14.6663 3.15278 14.5358 2.89167 14.2747C2.63056 14.0136 2.5 13.6997 2.5 13.333V3.99967C2.5 3.63301 2.63056 3.31912 2.89167 3.05801C3.15278 2.7969 3.46667 2.66634 3.83333 2.66634H4.5V1.33301H5.83333V2.66634H11.1667V1.33301H12.5V2.66634H13.1667C13.5333 2.66634 13.8472 2.7969 14.1083 3.05801C14.3694 3.31912 14.5 3.63301 14.5 3.99967V13.333C14.5 13.6997 14.3694 14.0136 14.1083 14.2747C13.8472 14.5358 13.5333 14.6663 13.1667 14.6663H3.83333ZM3.83333 13.333H13.1667V6.66634H3.83333V13.333ZM3.83333 5.33301H13.1667V3.99967H3.83333V5.33301Z" fill="black"/>
</svg>
